<svg width="300" height="64" viewBox="0 0 300 64" fill="none" xmlns="http://www.w3.org/2000/svg">
<path d="M0 3.88198C0 2.75417 0.914272 1.8399 2.04208 1.8399H7.06732C7.89613 1.8399 8.64274 2.34085 8.95696 3.10779L19.6525 29.2134C19.7037 29.3382 19.8252 29.4197 19.9601 29.4197C20.095 29.4197 20.2165 29.3382 20.2676 29.2134L30.9632 3.10779C31.2774 2.34085 32.024 1.8399 32.8528 1.8399H37.8781C39.0059 1.8399 39.9202 2.75417 39.9202 3.88198V37.8595C39.9202 38.9873 39.0059 39.9016 37.8781 39.9016H35.3461C34.2182 39.9016 33.304 38.9873 33.304 37.8595V13.9636C33.304 13.8472 33.2096 13.7528 33.0931 13.7528C33.0071 13.7528 32.9298 13.8049 32.8976 13.8846L22.9478 38.5129C22.636 39.2848 21.8869 39.7901 21.0544 39.7901H18.8668C18.0338 39.7901 17.2843 39.2841 16.9729 38.5115L7.02251 13.829C6.99036 13.7492 6.91299 13.697 6.82699 13.697C6.71057 13.697 6.61619 13.7914 6.61619 13.9078V37.8595C6.61619 38.9873 5.70192 39.9016 4.57411 39.9016H2.04208C0.91427 39.9016 0 38.9873 0 37.8595V3.88198Z" fill="white"/>
<path d="M53.7755 40.4777C51.9666 40.4777 50.3373 40.1556 48.8877 39.5113C47.4505 38.8546 46.3106 37.8882 45.4681 36.6121C44.638 35.3359 44.2229 33.7624 44.2229 31.8915C44.2229 30.2808 44.5203 28.9489 45.115 27.8958C45.7097 26.8426 46.5212 26.0001 47.5496 25.3683C48.5779 24.7364 49.7364 24.2594 51.0249 23.9372C52.3259 23.6027 53.6702 23.3611 55.0578 23.2124C56.7305 23.039 58.0872 22.8841 59.1279 22.7478C60.1687 22.5991 60.9245 22.3761 61.3953 22.0787C61.8785 21.769 62.1201 21.292 62.1201 20.6477V20.5362C62.1201 19.1362 61.705 18.052 60.8749 17.2839C60.0448 16.5157 58.8491 16.1316 57.288 16.1316C55.6402 16.1316 54.333 16.4909 53.3666 17.2095C52.9278 17.5401 52.5544 17.8982 52.2467 18.2839C51.6351 19.0502 50.7315 19.6559 49.7608 19.5181L47.4723 19.1931C46.2458 19.0189 45.4372 17.7846 46.0191 16.6909C46.4507 15.8796 46.9795 15.1542 47.6053 14.5147C48.7452 13.3377 50.1391 12.458 51.7869 11.8757C53.4348 11.281 55.2561 10.9836 57.2509 10.9836C58.6261 10.9836 59.9952 11.1447 61.3581 11.4668C62.721 11.789 63.9662 12.3217 65.0936 13.0651C66.2211 13.7961 67.1256 14.7935 67.807 16.0573C68.5009 17.321 68.8478 18.9007 68.8478 20.7964V37.8595C68.8478 38.9873 67.9335 39.9016 66.8057 39.9016H64.341C63.2581 39.9016 62.3803 39.0237 62.3803 37.9409V36.1187C62.3803 36.0422 62.3182 35.9802 62.2417 35.9802C62.1898 35.9802 62.1424 36.0092 62.1181 36.055C61.7119 36.8199 61.1488 37.5384 60.4289 38.2104C59.6979 38.8918 58.7748 39.4431 57.6597 39.8644C56.557 40.2733 55.2623 40.4777 53.7755 40.4777ZM55.5225 35.5341C56.873 35.5341 58.0438 35.2678 59.035 34.735C60.0262 34.1898 60.7882 33.4712 61.3209 32.5792C61.8661 31.6871 62.1387 30.7145 62.1387 29.6613V27.4858C62.1387 27.0119 61.5156 26.6476 61.0607 26.7807C60.5651 26.9294 60.0076 27.0595 59.3881 27.171C58.7686 27.2825 58.1553 27.3816 57.5482 27.4683C56.9411 27.5551 56.4145 27.6294 55.9685 27.6914C54.9649 27.8276 54.0667 28.0507 53.2737 28.3604C52.4808 28.6702 51.8551 29.1038 51.3966 29.6613C50.9382 30.2065 50.709 30.9127 50.709 31.78C50.709 33.019 51.1612 33.9544 52.0657 34.5863C52.9702 35.2182 54.1224 35.5341 55.5225 35.5341Z" fill="white"/>
<path d="M76.0847 39.9016C74.9569 39.9016 74.0426 38.9873 74.0426 37.8595V13.3974C74.0426 12.2696 74.9569 11.3553 76.0847 11.3553H78.5238C79.6516 11.3553 80.5659 12.2696 80.5659 13.3974V15.9414C80.5659 16.0362 80.6427 16.113 80.7374 16.113C80.8123 16.113 80.8784 16.0643 80.9019 15.9932C81.4273 14.4035 82.3065 13.1735 83.5394 12.3031C84.8156 11.3987 86.2714 10.9464 87.9069 10.9464C88.2786 10.9464 88.6936 10.965 89.152 11.0022C89.8366 11.0382 90.3229 11.6258 90.3229 12.3113V15.9374C90.3229 16.6142 89.6382 17.1415 88.9662 17.0608C88.3591 16.9741 87.7706 16.9308 87.2006 16.9308C85.974 16.9308 84.8713 17.1971 83.8925 17.7299C82.9261 18.2503 82.1641 18.9751 81.6066 19.9043C81.0491 20.8336 80.7703 21.9053 80.7703 23.1195V37.8595C80.7703 38.9873 79.856 39.9016 78.7282 39.9016H76.0847Z" fill="white"/>
<path d="M192.643 39.9016H181.788C180.66 39.9016 179.746 38.9873 179.746 37.8595V3.88198C179.746 2.75417 180.66 1.8399 181.788 1.8399H192.904C196.682 1.8399 199.929 2.60187 202.642 4.12583C205.368 5.63739 207.462 7.81181 208.924 10.6491C210.386 13.4864 211.117 16.8812 211.117 20.8336C211.117 24.7983 210.379 28.2055 208.905 31.0552C207.443 33.9049 205.331 36.0917 202.568 37.6156C199.817 39.1396 196.509 39.9016 192.643 39.9016ZM186.64 31.8938C186.64 33.0216 187.555 33.9358 188.683 33.9358H192.309C194.96 33.9358 197.172 33.4526 198.944 32.4862C200.715 31.5074 202.047 30.0516 202.939 28.1188C203.831 26.1736 204.277 23.7452 204.277 20.8336C204.277 17.9219 203.831 15.5059 202.939 13.5855C202.047 11.6527 200.728 10.2093 198.981 9.25523C197.246 8.28882 195.09 7.80562 192.513 7.80562H188.683C187.555 7.80562 186.64 8.71989 186.64 9.8477V31.8938Z" fill="white"/>
<path d="M217.842 39.9016C216.715 39.9016 215.8 38.9873 215.8 37.8595V13.3974C215.8 12.2696 216.715 11.3553 217.842 11.3553H220.282C221.409 11.3553 222.324 12.2696 222.324 13.3974V15.9414C222.324 16.0362 222.4 16.113 222.495 16.113C222.57 16.113 222.636 16.0643 222.66 15.9932C223.185 14.4035 224.064 13.1735 225.297 12.3031C226.573 11.3987 228.029 10.9464 229.665 10.9464C230.036 10.9464 230.451 10.965 230.91 11.0022C231.594 11.0382 232.081 11.6258 232.081 12.3113V15.9374C232.081 16.6142 231.396 17.1415 230.724 17.0608C230.117 16.9741 229.528 16.9308 228.958 16.9308C227.732 16.9308 226.629 17.1971 225.65 17.7299C224.684 18.2503 223.922 18.9751 223.364 19.9043C222.807 20.8336 222.528 21.9053 222.528 23.1195V37.8595C222.528 38.9873 221.614 39.9016 220.486 39.9016H217.842Z" fill="white"/>
<path d="M237.022 39.9016C235.895 39.9016 234.98 38.9873 234.98 37.8595V13.3974C234.98 12.2696 235.895 11.3553 237.022 11.3553H239.666C240.794 11.3553 241.708 12.2696 241.708 13.3974V37.8595C241.708 38.9873 240.794 39.9016 239.666 39.9016H237.022ZM238.363 7.30383C237.297 7.30383 236.38 6.95072 235.612 6.24449C234.844 5.52588 234.46 4.66478 234.46 3.66121C234.46 2.64524 234.844 1.78414 235.612 1.07792C236.38 0.359306 237.297 0 238.363 0C239.441 0 240.357 0.359306 241.113 1.07792C241.881 1.78414 242.266 2.64524 242.266 3.66121C242.266 4.66478 241.881 5.52588 241.113 6.24449C240.357 6.95072 239.441 7.30383 238.363 7.30383Z" fill="white"/>
<path d="M269.66 11.3553C271.071 11.3553 272.057 12.7529 271.583 14.0825L262.872 38.5446C262.582 39.3582 261.812 39.9016 260.948 39.9016H256.395C255.531 39.9016 254.761 39.3582 254.471 38.5446L245.76 14.0825C245.287 12.7529 246.272 11.3553 247.684 11.3553H250.457C251.352 11.3553 252.143 11.9385 252.408 12.7938L258.479 32.4185C258.505 32.503 258.583 32.5606 258.672 32.5606C258.76 32.5606 258.838 32.503 258.864 32.4186L264.954 12.7923C265.219 11.9378 266.009 11.3553 266.904 11.3553H269.66Z" fill="white"/>
<path d="M0 53.1812C0 52.0767 0.895431 51.1812 2 51.1812H129.218C130.323 51.1812 131.218 52.0767 131.218 53.1812V61.1812C131.218 62.2858 130.323 63.1812 129.218 63.1812H2C0.895429 63.1812 0 62.2858 0 61.1812V53.1812Z" fill="#4AD4C1"/>
<path fill-rule="evenodd" clip-rule="evenodd" d="M102.488 27.497C101.662 28.0374 100.604 27.866 99.9502 27.2324V22.8338C99.993 22.8261 100.037 22.8221 100.082 22.8221C100.294 22.8221 100.495 22.732 100.637 22.5743L110.065 12.0358C110.452 11.6028 111.006 11.3553 111.587 11.3553H113.956C115.723 11.3553 116.656 13.4473 115.475 14.7619L107.412 23.7399C107.562 23.8564 107.698 23.9964 107.816 24.1595L116.847 36.6639C117.822 38.0144 116.857 39.9016 115.192 39.9016H112.188C111.529 39.9016 110.911 39.5835 110.527 39.0476L102.831 28.2876C102.657 28.0448 102.543 27.775 102.488 27.497ZM99.9502 22.8338V3.88198C99.9502 2.75417 99.0359 1.8399 97.9081 1.8399H95.2646C94.1368 1.8399 93.2225 2.75417 93.2225 3.88198V37.8595C93.2225 38.9873 94.1368 39.9016 95.2646 39.9016H97.9081C99.0359 39.9016 99.9502 38.9873 99.9502 37.8595V27.2324C99.5843 26.8779 99.345 26.3786 99.3436 25.7784L99.3386 23.5675C99.3378 23.2076 99.5928 22.9068 99.9322 22.8373C99.9381 22.8361 99.9441 22.8349 99.9502 22.8338Z" fill="white"/>
<path d="M99.3386 23.5675L99.3436 25.7784C99.345 26.3786 99.5843 26.8779 99.9502 27.2324V22.8338L99.9322 22.8373C99.5928 22.9068 99.3378 23.2076 99.3386 23.5675Z" fill="white"/>
<path fill-rule="evenodd" clip-rule="evenodd" d="M125.495 38.675C127.577 39.8644 130.049 40.4591 132.911 40.4591C135.128 40.4591 137.098 40.1246 138.821 39.4555C140.543 38.7741 141.955 37.8201 143.058 36.5935C143.658 35.9273 144.153 35.2003 144.545 34.4123C145.091 33.3139 144.25 32.1237 143.031 31.9867L140.633 31.7171C139.7 31.6122 138.853 32.1916 138.286 32.9406C138.116 33.1646 137.929 33.3724 137.724 33.5642C137.142 34.1093 136.454 34.5244 135.661 34.8093C134.868 35.0819 133.982 35.2182 133.004 35.2182C131.542 35.2182 130.265 34.9085 129.175 34.289C128.085 33.6571 127.236 32.7526 126.629 31.5756C126.042 30.4263 125.739 29.0572 125.719 27.4683H143.562C144.69 27.4683 145.604 26.5541 145.604 25.4263V25.4054C145.604 22.9027 145.257 20.7468 144.563 18.9379C143.87 17.1166 142.916 15.6174 141.701 14.4404C140.5 13.2634 139.112 12.3961 137.538 11.8385C135.977 11.2686 134.317 10.9836 132.558 10.9836C129.832 10.9836 127.459 11.6093 125.44 12.8607C123.42 14.0997 121.847 15.8343 120.719 18.0644C119.604 20.2822 119.046 22.8593 119.046 25.7957C119.046 28.7817 119.604 31.3773 120.719 33.5827C121.834 35.7757 123.426 37.4732 125.495 38.675ZM124.248 27.4683H125.719C125.719 27.4129 125.718 27.3571 125.718 27.3011V23.3425C125.72 23.205 125.724 23.0688 125.732 22.9337L137.093 22.9336C138.229 22.9336 139.184 21.9904 138.882 20.8959C138.745 20.4018 138.558 19.9349 138.319 19.4955C137.774 18.4795 137.012 17.6803 136.033 17.098C135.067 16.5157 133.939 16.2245 132.651 16.2245C131.275 16.2245 130.067 16.5591 129.026 17.2281C127.986 17.8848 127.174 18.7521 126.592 19.83C126.083 20.7807 125.797 21.8154 125.732 22.9337L124.248 22.9336C123.12 22.9336 122.206 23.8479 122.206 24.9757V25.4263C122.206 26.5541 123.12 27.4683 124.248 27.4683Z" fill="white"/>
<path d="M122.206 24.9757V25.4263C122.206 26.5541 123.12 27.4683 124.248 27.4683H125.719C125.719 27.4129 125.718 27.3571 125.718 27.3011V23.3425C125.72 23.205 125.724 23.0688 125.732 22.9337L124.248 22.9336C123.12 22.9336 122.206 23.8479 122.206 24.9757Z" fill="white"/>
<path fill-rule="evenodd" clip-rule="evenodd" d="M163.98 13.3974C163.98 12.2696 163.066 11.3553 161.938 11.3553H158.349V6.55819C158.349 5.43038 157.435 4.51611 156.307 4.51611H153.663C152.536 4.51611 151.621 5.43038 151.621 6.55819V11.3553H149.612C148.484 11.3553 147.57 12.2696 147.57 13.3974V14.517C147.57 15.6448 148.484 16.5591 149.612 16.5591H151.621V32.4305C151.609 34.2146 151.993 35.7014 152.774 36.8908C153.567 38.0803 154.638 38.9599 155.989 39.5299C157.339 40.0874 158.857 40.3414 160.542 40.2919C161.496 40.2671 162.301 40.1803 162.958 40.0317C163.847 39.834 164.356 38.9527 164.164 38.0621L163.543 35.1795C163.447 34.7352 162.997 34.4534 162.549 34.5306C162.202 34.5925 161.818 34.6235 161.397 34.6235C160.839 34.6235 160.331 34.5368 159.873 34.3633C159.415 34.1898 159.043 33.8677 158.758 33.3969C158.485 32.9137 158.349 32.2199 158.349 31.3154V16.5591H161.938C163.066 16.5591 163.98 15.6448 163.98 14.517V13.3974ZM158.349 16.5591V11.3553H151.621V16.5591H158.349Z" fill="white"/>
<path d="M158.349 16.5591V11.3553H151.621V16.5591H158.349Z" fill="white"/>
<path fill-rule="evenodd" clip-rule="evenodd" d="M279.891 38.675C281.973 39.8644 284.444 40.4591 287.307 40.4591C289.524 40.4591 291.494 40.1246 293.217 39.4555C294.939 38.7741 296.351 37.8201 297.454 36.5935C298.053 35.9273 298.549 35.2003 298.941 34.4123C299.487 33.3139 298.646 32.1237 297.427 31.9867L295.029 31.7171C294.096 31.6122 293.249 32.1916 292.682 32.9406C292.512 33.1646 292.325 33.3724 292.12 33.5642C291.538 34.1093 290.85 34.5244 290.057 34.8093C289.264 35.0819 288.378 35.2182 287.399 35.2182C285.937 35.2182 284.661 34.9085 283.571 34.289C282.481 33.6571 281.632 32.7526 281.025 31.5756C280.438 30.4263 280.135 29.0572 280.115 27.4683H297.958C299.086 27.4683 300 26.5541 300 25.4263V25.4054C300 22.9027 299.653 20.7468 298.959 18.9379C298.265 17.1166 297.311 15.6174 296.097 14.4404C294.895 13.2634 293.508 12.3961 291.934 11.8385C290.373 11.2686 288.713 10.9836 286.953 10.9836C284.228 10.9836 281.855 11.6093 279.835 12.8607C277.816 14.0997 276.242 15.8343 275.115 18.0644C274 20.2822 273.442 22.8593 273.442 25.7957C273.442 28.7817 274 31.3773 275.115 33.5827C276.23 35.7757 277.822 37.4732 279.891 38.675ZM278.644 27.4683H280.115L280.115 27.4631C280.115 27.4094 280.114 27.3553 280.114 27.3011V23.3425C280.116 23.2051 280.12 23.0689 280.128 22.934L291.489 22.9336C292.625 22.9336 293.58 21.9904 293.278 20.8959C293.141 20.4018 292.953 19.9349 292.715 19.4955C292.17 18.4795 291.408 17.6803 290.429 17.098C289.462 16.5157 288.335 16.2245 287.046 16.2245C285.671 16.2245 284.463 16.5591 283.422 17.2281C282.382 17.8848 281.57 18.7521 280.988 19.83C280.479 20.7807 280.193 21.8156 280.128 22.934L278.644 22.9336C277.516 22.9336 276.602 23.8479 276.602 24.9757V25.4263C276.602 26.5541 277.516 27.4683 278.644 27.4683Z" fill="white"/>
<path d="M276.602 24.9757V25.4263C276.602 26.5541 277.516 27.4683 278.644 27.4683H280.115L280.115 27.4631C280.115 27.4094 280.114 27.3553 280.114 27.3011V23.3425C280.116 23.2051 280.12 23.0689 280.128 22.934L278.644 22.9336C277.516 22.9336 276.602 23.8479 276.602 24.9757Z" fill="white"/>
</svg>
