<svg width="512" height="512" viewBox="0 0 512 512" fill="none" xmlns="http://www.w3.org/2000/svg">
<path d="M50 123.983C50 120.126 53.1264 117 56.9831 117H90.3265C93.1607 117 95.7138 118.713 96.7883 121.336L154.841 263.031C155.114 263.697 155.762 264.131 156.482 264.131C157.202 264.131 157.85 263.697 158.123 263.031L216.176 121.336C217.25 118.713 219.803 117 222.637 117H255.981C259.838 117 262.964 120.126 262.964 123.983V313.066C262.964 316.923 259.838 320.049 255.981 320.049H234.651C230.795 320.049 227.668 316.923 227.668 313.066V181.677C227.668 181.056 227.165 180.552 226.543 180.552C226.085 180.552 225.672 180.83 225.5 181.256L171.433 315.087C170.366 317.727 167.805 319.454 164.958 319.454H148.01C145.161 319.454 142.598 317.724 141.533 315.082L87.4633 180.959C87.2918 180.533 86.879 180.255 86.4203 180.255C85.7992 180.255 85.2957 180.758 85.2957 181.379V313.066C85.2957 316.923 82.1693 320.049 78.3127 320.049H56.9831C53.1264 320.049 50 316.923 50 313.066V123.983Z" fill="white"/>
<path d="M363.45 320.049H301.626C297.769 320.049 294.643 316.923 294.643 313.066V123.983C294.643 120.126 297.769 117 301.626 117H364.838C384.997 117 402.315 121.065 416.79 129.195C431.331 137.259 442.501 148.859 450.301 163.995C458.1 179.131 462 197.242 462 218.326C462 239.477 458.067 257.654 450.202 272.856C442.402 288.059 431.133 299.725 416.393 307.855C401.72 315.984 384.072 320.049 363.45 320.049ZM331.426 281.241C331.426 285.097 334.552 288.224 338.409 288.224H361.665C375.81 288.224 387.608 285.646 397.06 280.49C406.512 275.269 413.617 267.502 418.376 257.191C423.135 246.814 425.515 233.859 425.515 218.326C425.515 202.794 423.135 189.905 418.376 179.66C413.617 169.349 406.578 161.648 397.258 156.559C388.005 151.403 376.504 148.826 362.756 148.826H338.409C334.552 148.826 331.426 151.952 331.426 155.809V281.241Z" fill="white"/>
<rect x="50" y="358.314" width="287.178" height="37.5339" rx="6.98305" fill="#4AD4C1"/>
</svg>
